# xmcd
#
# Track frame offsets:
#	150
#	13930
#	27552
#	41457
#	57808
#	70015
#	82038
#	98726
#	116441
#	131208
#	146913
#	160385
#
# Disc length: 2378 seconds
#
# Revision: 1
# Processed by: cddbd v1.5.2PL0 Copyright (c) Steve Scherf et al.
# Submitted via: audiograbber 1.83.01
#
DISCID=a809480c
DTITLE=Andy Martin - The Real Thing
DYEAR=2014
DGENRE=Country
TTITLE0=TWO STEPPIN MIND
TTITLE1=PICKIN UP CANS
TTITLE2=CABO SAN LUCAS
TTITLE3=THE REAL THING
TTITLE4=THTOUGH THE EYES OFA WOMAN
TTITLE5=IT'S AN OLD LOVE THING
TTITLE6=IF I CAN MAKE MISSISSIPPI
TTITLE7=IF YOU EVER FEEL LIKE LOVIN' ME AGAIN
TTITLE8=NOHERE USA
TTITLE9=DRINKIN AN DREAMIN
TTITLE10=LOVIN ON BACKSTREETS
TTITLE11=OUR KIND OF LOVE
EXTD=
EXTT0=
EXTT1=
EXTT2=
EXTT3=
EXTT4=
EXTT5=
EXTT6=
EXTT7=
EXTT8=
EXTT9=
EXTT10=
EXTT11=
PLAYORDER=
